<svg xmlns="http://www.w3.org/2000/svg">
  <symbol id="github-logo" viewBox="0 0 98 96">
    <path d="M48.854 0C21.839 0 0 22 0 49.217c0 21.756 13.993 40.172 33.405 46.69 2.427.49 3.316-1.059 3.316-2.362 0-1.141-.08-5.052-.08-9.127-13.59 2.934-16.42-5.867-16.42-5.867-2.184-5.704-5.42-7.17-5.42-7.17-4.448-3.015.324-3.015.324-3.015 4.934.326 7.523 5.052 7.523 5.052 4.367 7.496 11.404 5.378 14.235 4.074.404-3.178 1.699-5.378 3.074-6.6-10.839-1.141-22.243-5.378-22.243-24.283 0-5.378 1.94-9.778 5.014-13.2-.485-1.222-2.184-6.275.486-13.038 0 0 4.125-1.304 13.426 5.052a46.97 46.97 0 0 1 12.214-1.63c4.125 0 8.33.571 12.213 1.63 9.302-6.356 13.427-5.052 13.427-5.052 2.67 6.763.97 11.816.485 13.038 3.155 3.422 5.015 7.822 5.015 13.2 0 18.905-11.404 23.06-22.324 24.283 1.78 1.548 3.316 4.481 3.316 9.126 0 6.6-.08 11.897-.08 13.526 0 1.304.89 2.853 3.316 2.364 19.412-6.52 33.405-24.935 33.405-46.691C97.707 22 75.788 0 48.854 0z" />
  </symbol>
  <symbol id="octagon" viewBox="0 0 32 32">
    <polygon points="32,16 27.31,27.31 16,32 4.69,27.31 0,16 4.69,4.69 16,0 27.31,4.69" />
  </symbol>
  <symbol id="camera" viewBox="0 0 24 24">
    <path d="M17 10.5V7c0-1.1-0.9-2-2-2H5c-1.1 0-2 .9-2 2v10c0 1.1.9 2 2 2h10c1.1 0 2-.9 2-2v-3.5l4 4v-11l-4 4z" />
  </symbol>
  <symbol id="microphone" viewBox="0 0 24 24">
    <path d="M12 14c1.66 0 3-1.34 3-3V5c0-1.66-1.34-3-3-3s-3 1.34-3 3v6c0 1.66 1.34 3 3 3z" />
    <path d="M16.5 11c0 2.48-2.02 4.5-4.5 4.5S7.5 13.48 7.5 11H5c0 3.53 2.61 6.43 6 6.92V21h2v-3.08c3.39-.49 6-3.39 6-6.92H16.5z" />
  </symbol>
  <symbol id="warning" viewBox="0 0 24 24">
    <path d="M12 5.511c.561 0 1.119.354 1.544 1.062l5.912 9.854C20.307 17.842 19.65 19 18 19H6c-1.65 0-2.307-1.159-1.456-2.573l5.912-9.854c.425-.708.983-1.062 1.544-1.062m0-2c-1.296 0-2.482.74-3.259 2.031l-5.912 9.856c-.786 1.309-.872 2.705-.235 3.83S4.473 21 6 21h12c1.527 0 2.77-.646 3.406-1.771s.551-2.521-.235-3.83l-5.912-9.854C14.482 4.251 13.296 3.511 12 3.511z" />
    <path d="M12 14.7A1.3 1.3 0 1 0 12 17.3 1.3 1.3 0 1 0 12 14.7z" />
    <path d="M13.5 10c0-.83-.671-1.5-1.5-1.5a1.499 1.499 0 0 0-1.389 2.062C11.165 11.938 12 14 12 14l1.391-3.438c.068-.173.109-.363.109-.562z" />
  </symbol>
  <symbol id="down" viewBox="0 0 24 24">
    <path d="M8.12 9.29 12 13.17l3.88-3.88c.39-.39 1.02-.39 1.41 0 .39.39.39 1.02 0 1.41l-4.59 4.59c-.39.39-1.02.39-1.41 0L6.7 10.7c-.39-.39-.39-1.02 0-1.41.39-.38 1.03-.39 1.42 0z" />
  </symbol>
  <symbol id="left" viewBox="0 0 24 24">
    <path d="M14.71 6.71c-.39-.39-1.02-.39-1.41 0L8.71 11.3c-.39.39-.39 1.02 0 1.41l4.59 4.59c.39.39 1.02.39 1.41 0 .39-.39.39-1.02 0-1.41L10.83 12l3.88-3.88c.39-.39.38-1.03 0-1.41z" />
  </symbol>
  <symbol id="right" viewBox="0 0 24 24">
    <path d="M9.29 6.71c-.39.39-.39 1.02 0 1.41L13.17 12l-3.88 3.88c-.39.39-.39 1.02 0 1.41.39.39 1.02.39 1.41 0l4.59-4.59c.39-.39.39-1.02 0-1.41L10.7 6.7c-.38-.38-1.02-.38-1.41.01z" />
  </symbol>
  <symbol id="start" viewBox="0 0 24 24">
    <path d="M8 6.82v10.36c0 .79.87 1.27 1.54.84l8.14-5.18c.62-.39.62-1.29 0-1.69L9.54 5.98C8.87 5.55 8 6.03 8 6.82z" />
  </symbol>
  <symbol id="in" viewBox="0 -960 960 960">
    <path d="M499.23-160q-8.54 0-14.27-5.73T479.23-180q0-8.54 5.73-14.27t14.27-5.73h236.15q9.24 0 16.93-7.69 7.69-7.69 7.69-16.93v-510.76q0-9.24-7.69-16.93-7.69-7.69-16.93-7.69H499.23q-8.54 0-14.27-5.73T479.23-780q0-8.54 5.73-14.27t14.27-5.73h236.15q27.62 0 46.12 18.5Q800-763 800-735.38v510.76q0 27.62-18.5 46.12Q763-160 735.38-160H499.23Zm16.23-300H180q-8.54 0-14.27-5.73T160-480q0-8.54 5.73-14.27T180-500h335.46l-78.85-78.85q-5.61-5.61-6-13.53-.38-7.93 6-14.54 6.39-6.62 14.16-6.73 7.77-.12 14.38 6.5l104.54 104.53q9.69 9.7 9.69 22.62 0 12.92-9.69 22.62L465.15-352.85q-5.84 5.85-13.88 6.12-8.04.27-14.66-6.35-6.38-6.61-6.26-14.27.11-7.65 6.5-14.03L515.46-460Z" />
  </symbol>
  <symbol id="out" viewBox="0 -960 960 960">
    <path d="M224.62-160q-27.62 0-46.12-18.5Q160-197 160-224.62v-510.76q0-27.62 18.5-46.12Q197-800 224.62-800h236.15q8.54 0 14.27 5.73t5.73 14.27q0 8.54-5.73 14.27T460.77-760H224.62q-9.24 0-16.93 7.69-7.69 7.69-7.69 16.93v510.76q0 9.24 7.69 16.93 7.69 7.69 16.93 7.69h236.15q8.54 0 14.27 5.73t5.73 14.27q0 8.54-5.73 14.27T460.77-160H224.62Zm497.76-300H387.69q-8.54 0-14.27-5.73T367.69-480q0-8.54 5.73-14.27t14.27-5.73h334.69l-78.84-78.85q-5.62-5.61-6-13.53-.39-7.93 6-14.54 6.38-6.62 14.15-6.73 7.77-.12 14.39 6.5l104.54 104.53q9.69 9.7 9.69 22.62 0 12.92-9.69 22.62L672.08-352.85q-5.85 5.85-13.89 6.12-8.04.27-14.65-6.35-6.39-6.61-6.27-14.27.11-7.65 6.5-14.03L722.38-460Z" />
  </symbol>
  <symbol id="add" viewBox="0 -960 960 960">
    <path d="M445-445.5H245q-14.87 0-24.94-10.09-10.06-10.09-10.06-25t10.06-24.91q10.07-10 24.94-10h200v-200q0-14.88 10.09-24.94t25-10.06q14.91 0 24.91 10.06t10 24.94v200h200q14.88 0 24.94 10.09t10.06 25q0 14.91-10.06 24.91t-24.94 10H515v200q0 14.87-10.09 24.94-10.09 10.06-25 10.06T455-220.56q-10-10.07-10-24.94v-200Z" />
  </symbol>
  <symbol id="send" viewBox="0 0 24 24">
    <path d="M13 19V7.83l4.88 4.88c.39.39 1.03.39 1.42 0 .39-.39.39-1.02 0-1.41l-6.59-6.59c-.39-.39-1.02-.39-1.41 0l-6.6 6.58c-.39.39-.39 1.02 0 1.41.39.39 1.02.39 1.41 0L11 7.83V19c0 .55.45 1 1 1s1-.45 1-1z" />
  </symbol>
  <symbol id="fullscreen" viewBox="0 -960 960 960">
    <path d="M120-120v-200h80v120h120v80H120Zm520 0v-80h120v-120h80v200H640ZM120-640v-200h200v80H200v120h-80Zm640 0v-120H640v-80h200v200h-80Z" />
  </symbol>
  <symbol id="fullscreen-exit" viewBox="0 -960 960 960">
    <path d="M240-120v-120H120v-80h200v200h-80Zm400 0v-200h200v80H720v120h-80ZM120-640v-80h120v-120h80v200H120Zm520 0v-200h80v120h120v80H640Z" />
  </symbol>
  <symbol id="copy" viewBox="0 -960 960 960">
    <path d="M364.62-280q-27.62 0-46.12-18.5Q300-317 300-344.62v-430.76q0-27.62 18.5-46.12Q337-840 364.62-840h310.76q27.62 0 46.12 18.5Q740-803 740-775.38v430.76q0 27.62-18.5 46.12Q703-280 675.38-280H364.62Zm0-40h310.76q9.24 0 16.93-7.69 7.69-7.69 7.69-16.93v-430.76q0-9.24-7.69-16.93-7.69-7.69-16.93-7.69H364.62q-9.24 0-16.93 7.69-7.69 7.69-7.69 16.93v430.76q0 9.24 7.69 16.93 7.69 7.69 16.93 7.69Zm-120 160q-27.62 0-46.12-18.5Q180-197 180-224.61v-470.77h40v470.77q0 9.23 7.69 16.92 7.69 7.69 16.93 7.69h350.76v40H244.62ZM340-320v-480 480Z" />
  </symbol>
  <symbol id="done" viewBox="0 0 24 24">
    <path d="M9 16.2l-3.5-3.5c-.39-.39-1.01-.39-1.4 0-.39.39-.39 1.01 0 1.4l4.19 4.19c.39.39 1.02.39 1.41 0L20.3 7.7c.39-.39.39-1.01 0-1.4-.39-.39-1.01-.39-1.4 0L9 16.2z" />
  </symbol>
</svg>
